<svg width="32" height="32" xmlns="http://www.w3.org/2000/svg">
 <defs>
  <filter id="svg_20_blur">
   <feGaussianBlur stdDeviation="0"/>
  </filter>
 </defs>
 <g>
  <title>background</title>
  <rect x="-1" y="-1" width="34" height="34" id="canvas_background" fill="#ff7f00"/>
 </g>
 <g>
  <title>Layer 1</title>
  <path stroke="null" d="m25.621925,0.050424l-19.175254,0c-3.515463,0 -6.391751,2.894845 -6.391751,6.432989l0,19.298966c0,3.538144 2.876288,6.432989 6.391751,6.432989l19.175254,0c3.515463,0 6.391751,-2.894845 6.391751,-6.432989l0,-19.298966c0,-3.538144 -2.876288,-6.432989 -6.391751,-6.432989zm-4.958401,18.409605c0.257268,-1.318763 0.273247,-2.569979 0.300412,-3.538144c0.017577,-1.392742 0.038351,-2.256371 0.039948,-2.256371l0.044742,2.262804c0,0.956907 0.019175,2.196866 -0.218917,3.517237c0.006392,0.303959 0.055928,0.739794 -0.055928,1.331629c-0.345155,0.048247 -0.696701,0.090062 -1.059433,0.123835c0.006392,-0.02734 0.009588,-0.049856 0.015979,-0.077196c0.241289,-0.805732 0.661546,-1.154721 0.933196,-1.363794zm-0.496959,-2.042474c0.161392,-1.241567 0.115052,-2.40433 0.086289,-3.306556l-0.073505,-2.100371c0,0 0.070309,0.805732 0.153402,2.101979c0.055928,0.889361 0.129433,2.039257 -0.012784,3.280824c0.030361,0.347381 0.139021,0.860412 -0.031959,1.643629c-0.198144,0.882928 -0.671134,1.317154 -0.792577,1.497278c-0.05433,-0.236412 -0.31799,-0.853979 -0.113454,-1.786763c0.166186,-0.767134 0.543299,-1.116124 0.784587,-1.33002zm-0.616804,-5.080453c0.095876,0.821814 0.225309,1.881649 0.166186,3.041195c0.047938,0.320041 0.180567,0.788041 0.070309,1.526227c-0.127835,0.831464 -0.536907,1.268907 -0.637577,1.442598c-0.065515,-0.217113 -0.35634,-0.771959 -0.223711,-1.65167c0.105464,-0.723711 0.436237,-1.072701 0.650361,-1.283381c0.076701,-1.162763 -0.025567,-2.237072 -0.099072,-3.07336l-0.170979,-1.942763c-0.003196,0 0.10067,0.744618 0.244484,1.941154zm-0.851701,-1.735299c0.134227,0.75266 0.311598,1.724041 0.324381,2.79835c0.063918,0.292701 0.214124,0.717278 0.158196,1.407216c-0.065515,0.771959 -0.413866,1.206185 -0.496959,1.375051c-0.075103,-0.196206 -0.377113,-0.691546 -0.31,-1.514969c0.052732,-0.677072 0.337165,-1.021237 0.522526,-1.228701c0.004794,-1.079134 -0.151804,-2.066598 -0.26366,-2.833732l-0.26366,-1.785154l0.329175,1.781938zm-0.941185,-1.691876c0.167783,0.683505 0.386701,1.564824 0.465,2.552288c0.076701,0.265361 0.238093,0.643299 0.231701,1.281773c-0.009588,0.71567 -0.30201,1.138639 -0.36433,1.301072c-0.081495,-0.175299 -0.394691,-0.612742 -0.385103,-1.375051c0.006392,-0.625608 0.246082,-0.961732 0.40268,-1.162763c-0.063918,-0.992289 -0.26366,-1.888082 -0.412268,-2.58767l-0.338763,-1.625938l0.401082,1.616288zm-2.513556,2.898061c0.399484,0.607917 0.874072,1.415258 1.473299,2.26602c0.270051,0.067546 0.699897,0.188165 1.105773,0.730144c0.492165,0.662598 0.461804,1.249608 0.488969,1.452247c-0.155,-0.112577 -0.663144,-0.332907 -1.110567,-0.936c-0.399484,-0.535546 -0.50335,-0.942433 -0.610412,-1.209402c-0.584845,-0.849155 -1.03067,-1.656495 -1.404587,-2.26602c-0.544897,-0.887752 -0.923608,-1.400783 -0.92201,-1.402392c-0.001598,0.001608 0.405876,0.49534 0.979536,1.365402zm-1.343866,-3.004206c0,0.001608 0.380309,0.455134 0.920412,1.256041c0.378711,0.55967 0.82933,1.30268 1.398196,2.079464c0.24768,0.057897 0.650361,0.165649 1.032268,0.659381c0.466598,0.606309 0.452216,1.14668 0.477783,1.333237c-0.143814,-0.099711 -0.618402,-0.295917 -1.043453,-0.84433c-0.375515,-0.492124 -0.480979,-0.866845 -0.586443,-1.109691c-0.551289,-0.78 -0.974742,-1.52301 -1.329484,-2.08268c-0.512938,-0.81699 -0.869278,-1.288206 -0.869278,-1.291422zm2.818762,-1.534268c0.190155,0.61435 0.450618,1.404 0.586443,2.299793c0.086289,0.236412 0.265258,0.572536 0.295618,1.154721c0.044742,0.656165 -0.198144,1.06466 -0.244484,1.215835c-0.084691,-0.152783 -0.394691,-0.530722 -0.442629,-1.230309c-0.033557,-0.572536 0.159794,-0.894185 0.287629,-1.090392c-0.123041,-0.902227 -0.365928,-1.707958 -0.538505,-2.335175c-0.26366,-0.89901 -0.412268,-1.461897 -0.41067,-1.461897l0.466598,1.447422zm-2.636597,-2.127711c0.191753,0.310392 1.029072,1.635587 1.820051,3.454515c0.16299,0.09167 0.487371,0.268577 0.679124,0.710845c0.21732,0.530722 0.004794,0.889361 -0.027165,1.058227c-0.153402,-0.143134 -0.466598,-0.312 -0.659948,-0.778392c-0.158196,-0.365072 -0.111856,-0.691546 -0.078299,-0.886144c-0.890051,-2.114845 -1.78969,-3.624989 -1.775309,-3.629814l0.041546,0.070763zm0.274845,3.160206c0.357938,0.509814 0.775,1.191711 1.305515,1.900948c0.230103,0.051464 0.596031,0.149567 0.957165,0.598268c0.434639,0.553237 0.429845,1.045361 0.460206,1.214227c-0.134227,-0.09167 -0.575258,-0.260536 -0.969948,-0.765526c-0.359536,-0.443876 -0.45701,-0.789649 -0.554484,-1.013196c-0.517732,-0.709237 -0.910825,-1.392742 -1.246391,-1.904165c-0.476185,-0.749443 -0.814948,-1.177237 -0.811752,-1.180453c-0.003196,0.003216 0.357938,0.41332 0.859691,1.149897zm-0.107062,5.466432c0.465,0.722103 1.041855,1.619505 1.546804,2.663257c0.113454,0.18334 0.233299,0.379546 0.361134,0.604701c0.401082,0.677072 0.850103,1.555175 1.399794,2.505649c0.049536,-0.165649 0.107062,-0.30235 0.156598,-0.416536c-0.183763,-0.548412 -0.393093,-1.071093 -0.61201,-1.56c-0.498557,-0.839505 -0.898041,-1.619505 -1.244794,-2.230639c-0.589639,-1.037319 -1.006701,-1.633979 -1.005103,-1.637196c-0.001598,0.003216 0.449021,0.577361 1.072216,1.593773c0.119845,0.199423 0.249278,0.416536 0.381907,0.646515c-0.10067,-0.191381 -0.198144,-0.377938 -0.290825,-0.553237l-1.22402,-2.306226c-0.001598,0 0.517732,0.863629 1.316701,2.269237c0.36433,0.641691 0.797371,1.412041 1.200051,2.283711c0.067113,0.106144 0.132629,0.212289 0.199742,0.320041c0.238093,0.070763 0.592835,0.184948 0.942783,0.540371c-0.071907,-0.172082 -0.14701,-0.33934 -0.21732,-0.501773c-0.186959,-0.152783 -0.393093,-0.353814 -0.586443,-0.628825c-0.413866,-0.58701 -0.51933,-1.02767 -0.62799,-1.313938c-0.605618,-0.923134 -1.070618,-1.79802 -1.462113,-2.457402c-0.568866,-0.96334 -0.96835,-1.516577 -0.966752,-1.519794c-0.001598,0.001608 0.426649,0.535546 1.027474,1.477979c0.421856,0.659381 0.915618,1.535876 1.54201,2.460618c0.057526,0.014474 0.119845,0.033773 0.188557,0.056289c-0.460206,-0.981031 -0.725464,-1.563216 -0.723866,-1.563216l0.816546,1.596989c0.265258,0.102928 0.588041,0.292701 0.890051,0.71567c0.514536,0.725319 0.461804,1.360577 0.482577,1.580907c-0.065515,-0.051464 -0.191753,-0.123835 -0.349948,-0.231588c0.129433,0.276619 0.258866,0.566103 0.386701,0.870062c0.135825,0.241237 0.220515,0.469608 0.271649,0.673856c0.14701,0.385979 0.281237,0.789649 0.401082,1.207794c-0.065515,0.004825 -0.131031,0.009649 -0.198144,0.014474c-0.041546,-0.14635 -0.081495,-0.292701 -0.126237,-0.434227c0,0.020907 0,0.043423 0,0.061113c-0.121443,-0.099711 -0.450618,-0.279835 -0.802165,-0.641691c0.059124,0.125443 0.116649,0.265361 0.170979,0.414928c0.161392,0.136701 0.324381,0.316825 0.479381,0.562887c0.011186,0.019299 0.019175,0.03699 0.030361,0.056289c-0.501752,0.033773 -1.014691,0.053072 -1.532422,0.056289c-0.124639,-0.517856 -0.107062,-0.92635 -0.039948,-1.249608l-0.460206,-0.837897c0.231701,0.900618 0.035155,1.537484 0.017577,1.772288c-0.191753,-0.207464 -0.82134,-0.680289 -1.150515,-1.732082c-0.273247,-0.863629 -0.087887,-1.421691 0.038351,-1.769072c-0.541701,-1.338062 -1.243196,-2.484742 -1.780103,-3.378927l-1.252783,-2.081072c-0.001598,0 0.520928,0.778392 1.33268,2.039257zm-2.559896,5.250927c-1.23201,-0.852371 -2.030979,-1.304288 -2.027783,-1.305897c-0.001598,0.001608 0.82134,0.41332 2.082113,1.227093c0.800567,0.517856 1.781701,1.222268 2.911443,1.937938c-0.124639,-0.012866 -0.252474,-0.022515 -0.375515,-0.03699c-1.003505,-0.672247 -1.875979,-1.326804 -2.590257,-1.822144zm1.003505,1.569649c-0.075103,-0.014474 -0.14701,-0.032165 -0.220515,-0.048247c-1.037062,-0.736577 -1.700206,-1.112907 -1.69701,-1.117732c-0.003196,0.003216 0.757423,0.389196 1.917525,1.165979zm0.703093,-1.375051c-1.190464,-0.718886 -2.192371,-1.455464 -2.996133,-1.99101c-1.168093,-0.776783 -1.923917,-1.191711 -1.922319,-1.193319c-0.003196,0 0.773402,0.377938 1.968659,1.11934c0.837319,0.519464 1.874381,1.243175 3.08402,1.952412c0.367526,-0.062722 0.96835,-0.147959 1.770515,0.297526c0.977938,0.545196 1.263969,1.281773 1.406185,1.514969c-0.252474,-0.056289 -1.000309,-0.056289 -1.885567,-0.554845c-0.789381,-0.442268 -1.144123,-0.879711 -1.425361,-1.145072zm-6.171236,-4.834391c-0.003196,0.003216 0.725464,0.344165 1.85201,1.019629c0.784587,0.474433 1.764123,1.132206 2.903453,1.77068c0.341959,-0.06433 0.898041,-0.152783 1.65067,0.244454c0.92201,0.485691 1.204845,1.159546 1.342268,1.371835c-0.233299,-0.045031 -0.93,-0.030557 -1.764123,-0.472825c-0.746237,-0.395629 -1.086598,-0.796082 -1.353453,-1.035711c-1.121752,-0.648124 -2.067732,-1.318763 -2.825154,-1.80767c-1.097783,-0.709237 -1.807268,-1.087175 -1.80567,-1.090392zm5.118195,-2.11002c0.562474,0.77035 1.291134,1.764247 1.89036,2.959175c0.231701,0.292701 0.632783,0.689938 0.941185,1.487629c0.346753,0.89901 0.186959,1.561608 0.185361,1.794804c-0.190155,-0.180124 -0.805361,-0.577361 -1.174484,-1.53266c-0.308402,-0.783216 -0.170979,-1.313938 -0.076701,-1.640412c-0.583247,-1.206185 -1.29433,-2.227422 -1.839226,-3.026721l-1.267165,-1.860742l1.34067,1.818928zm-1.989433,-1.404c0.560876,0.67868 1.287938,1.55035 1.91433,2.611793c0.231701,0.25732 0.621598,0.59666 0.960361,1.31233c0.377113,0.804124 0.276443,1.428123 0.292423,1.640412c-0.185361,-0.152783 -0.778196,-0.479258 -1.182474,-1.338062c-0.332371,-0.701196 -0.241289,-1.198144 -0.175773,-1.505319c-0.610412,-1.075917 -1.323093,-1.973319 -1.872783,-2.677732l-1.268763,-1.638804l1.33268,1.595381zm-2.070927,-1.294639c0.549691,0.588618 1.275154,1.334845 1.915927,2.26602c0.226907,0.218722 0.61201,0.501773 0.963557,1.137031c0.407474,0.709237 0.354742,1.289814 0.385103,1.484412c-0.182165,-0.12866 -0.738247,-0.389196 -1.172886,-1.145072c-0.34835,-0.624 -0.30201,-1.08235 -0.265258,-1.368618c-0.62799,-0.944041 -1.342268,-1.717608 -1.880773,-2.328742c-0.787783,-0.868453 -1.262371,-1.418474 -1.259175,-1.418474l1.313505,1.373443zm-4.146649,-1.014804c0.386701,0.249278 2.058144,1.294639 3.942113,2.918969c0.236495,0.017691 0.699897,0.049856 1.158505,0.445484c0.535309,0.479258 0.488969,0.99068 0.543299,1.196536c-0.254072,-0.083629 -0.701495,-0.107753 -1.171288,-0.530722c-0.377113,-0.324866 -0.50335,-0.714062 -0.572062,-0.948866c-2.158814,-1.905773 -3.999638,-3.126433 -3.986855,-3.140907l0.086289,0.059505zm2.027783,3.386969c0.682319,0.382763 1.529226,0.932783 2.515154,1.447422c0.289227,-0.059505 0.75902,-0.138309 1.412577,0.173691c0.792577,0.397237 1.056237,0.947258 1.180876,1.120948c-0.20134,-0.032165 -0.795773,0.004825 -1.516443,-0.355423c-0.647165,-0.312 -0.947577,-0.646515 -1.180876,-0.845938c-0.971546,-0.525897 -1.791288,-1.083959 -2.448041,-1.479587c-0.947577,-0.595051 -1.564381,-0.89901 -1.564381,-0.902227c0,0.003216 0.631185,0.276619 1.601134,0.841113zm-0.244484,0.794474c-0.001598,0.003216 0.677526,0.313608 1.727371,0.927959c0.735051,0.429402 1.649072,1.02767 2.714896,1.601814c0.316392,-0.061113 0.827732,-0.151175 1.530824,0.202639c0.859691,0.435835 1.134536,1.048577 1.265567,1.241567c-0.21732,-0.038598 -0.862886,-0.011258 -1.64268,-0.408495c-0.693505,-0.350598 -1.016288,-0.717278 -1.267165,-0.936c-1.048247,-0.582185 -1.933505,-1.193319 -2.639793,-1.637196c-1.029072,-0.644907 -1.690618,-0.987464 -1.68902,-0.992289zm22.09948,6.465154c-0.068711,1.78033 -0.671134,3.711834 -1.59634,5.492164c0,0 -2.20835,4.501484 -9.141802,4.501484s-9.181751,-4.461278 -9.181751,-4.461278c-0.926804,-1.789979 -1.489278,-3.70701 -1.559587,-5.530762l0.004794,0c-0.003196,-0.046639 -0.004794,-0.093278 -0.004794,-0.141526c0,-0.855587 0.525722,-1.656495 1.431752,-2.348041l0.965154,0.622392c-0.597629,0.40367 -0.942783,0.853979 -0.942783,1.333237c0,1.685443 4.157834,3.052453 9.287215,3.052453c5.127782,0 9.285617,-1.36701 9.285617,-3.052453c0,-1.165979 -1.994226,-2.179175 -4.921648,-2.693814l0.012784,-1.225484c3.747164,0.738185 6.362988,2.389855 6.362988,4.311711c0,0.048247 -0.001598,0.094887 -0.004794,0.141526l0.003196,0l0,-0.001608z" fill="#000000" id="svg_1"/>
  <g id="svg_2"/>
  <g id="svg_3"/>
  <g id="svg_4"/>
  <g id="svg_5"/>
  <g id="svg_6"/>
  <g id="svg_7"/>
  <g id="svg_8"/>
  <g id="svg_9"/>
  <g id="svg_10"/>
  <g id="svg_11"/>
  <g id="svg_12"/>
  <g id="svg_13"/>
  <g id="svg_14"/>
  <g id="svg_15"/>
  <g id="svg_16"/>
  <text fill="#000000" stroke-width="0" x="6.893407" y="4.250013" id="svg_17" font-size="24" font-family="Helvetica, Arial, sans-serif" text-anchor="start" xml:space="preserve" stroke="#000"/>
  <text fill="#000000" stroke-width="0" stroke-opacity="null" fill-opacity="null" x="18.473522" y="4.062513" id="svg_19" font-size="24" font-family="Helvetica, Arial, sans-serif" text-anchor="start" xml:space="preserve" stroke="null"/>
  <text stroke="null" fill="#000000" stroke-width="0" stroke-opacity="null" x="13.100372" y="24.229064" id="svg_20" font-size="4" font-family="'Courier New', Courier, monospace" text-anchor="start" xml:space="preserve" font-weight="bold" font-style="italic" filter="url(#svg_20_blur)" transform="rotate(-10 18.847307205200167,23.874849319457994) matrix(1.2412638664245605,0,0,1.1322572131538209,-3.343766398727894,-2.388451832311244) ">MSOJ</text>
 </g>
</svg>