<svg width="32" height="32" xmlns="http://www.w3.org/2000/svg">
 <defs>
  <filter id="svg_20_blur">
   <feGaussianBlur stdDeviation="0"/>
  </filter>
 </defs>
 <g>
  <title>background</title>
  <rect x="-1" y="-1" width="34" height="34" id="canvas_background" fill="none"/>
 </g>
 <g>
  <title>Layer 1</title>
  <path stroke-width="0" d="m20.63517,18.31518c0.25759,-1.31199 0.27359,-2.55678 0.30079,-3.51997c0.0176,-1.38559 0.0384,-2.24478 0.04,-2.24478l0.0448,2.25118c0,0.95199 0.0192,2.18558 -0.21919,3.49917c0.0064,0.3024 0.056,0.736 -0.056,1.32479c-0.3456,0.048 -0.6976,0.0896 -1.0608,0.1232c0.0064,-0.0272 0.0096,-0.0496 0.016,-0.0768c0.2416,-0.80159 0.6624,-1.14879 0.9344,-1.35679zm-0.4976,-2.03198c0.1616,-1.23519 0.1152,-2.39198 0.0864,-3.28957l-0.0736,-2.08959c0,0 0.0704,0.8016 0.1536,2.09119c0.056,0.88479 0.1296,2.02878 -0.0128,3.26397c0.0304,0.3456 0.1392,0.85599 -0.032,1.63519c-0.1984,0.87839 -0.672,1.31039 -0.7936,1.48958c-0.0544,-0.23519 -0.31839,-0.84959 -0.1136,-1.77758c0.1664,-0.7632 0.544,-1.11039 0.7856,-1.32319zm-0.6176,-5.05436c0.096,0.81759 0.2256,1.87198 0.1664,3.02557c0.048,0.3184 0.1808,0.784 0.0704,1.51839c-0.128,0.8272 -0.53759,1.26239 -0.63839,1.43519c-0.0656,-0.216 -0.3568,-0.76799 -0.224,-1.64319c0.1056,-0.71999 0.4368,-1.06719 0.65119,-1.27679c0.0768,-1.15679 -0.0256,-2.22558 -0.09919,-3.05757l-0.1712,-1.93279c-0.0032,0 0.1008,0.7408 0.24479,1.93119zm-0.85279,-1.72639c0.1344,0.7488 0.312,1.71519 0.3248,2.78398c0.064,0.2912 0.2144,0.7136 0.1584,1.39999c-0.0656,0.76799 -0.4144,1.19999 -0.4976,1.36799c-0.0752,-0.1952 -0.3776,-0.688 -0.3104,-1.50719c0.0528,-0.67359 0.3376,-1.01599 0.5232,-1.22239c0.0048,-1.07359 -0.152,-2.05598 -0.264,-2.81918l-0.264,-1.77598l0.3296,1.77278zm-0.94239,-1.68318c0.168,0.67999 0.38719,1.55678 0.46559,2.53918c0.0768,0.26399 0.2384,0.63999 0.232,1.27519c-0.0096,0.71199 -0.3024,1.13279 -0.36479,1.29439c-0.0816,-0.1744 -0.3952,-0.6096 -0.3856,-1.36799c0.0064,-0.6224 0.2464,-0.95679 0.4032,-1.15679c-0.064,-0.9872 -0.264,-1.87839 -0.4128,-2.57438l-0.3392,-1.61759l0.4016,1.60799zm-2.51678,2.88317c0.4,0.6048 0.87519,1.40799 1.47519,2.25439c0.27039,0.06719 0.70079,0.18719 1.10719,0.72639c0.49279,0.65919 0.46239,1.24319 0.48959,1.44479c-0.1552,-0.112 -0.66399,-0.3312 -1.11199,-0.93119c-0.4,-0.5328 -0.50399,-0.9376 -0.61119,-1.20319c-0.5856,-0.8448 -1.032,-1.64799 -1.40639,-2.25439c-0.5456,-0.88319 -0.9248,-1.39359 -0.9232,-1.39519c-0.0016,0.0016 0.4064,0.4928 0.9808,1.35839zm-1.34559,-2.98877c0,0.0016 0.3808,0.45279 0.92159,1.24959c0.3792,0.55679 0.8304,1.29599 1.39999,2.06878c0.248,0.0576 0.6512,0.1648 1.03359,0.656c0.4672,0.60319 0.4528,1.14079 0.4784,1.32639c-0.144,-0.0992 -0.6192,-0.2944 -1.04479,-0.84c-0.376,-0.48959 -0.4816,-0.86239 -0.5872,-1.10399c-0.55199,-0.77599 -0.97599,-1.51519 -1.33119,-2.07198c-0.51359,-0.8128 -0.87039,-1.28159 -0.87039,-1.28479zm2.82238,-1.52639c0.19039,0.61119 0.45119,1.39679 0.58719,2.28798c0.0864,0.2352 0.2656,0.5696 0.296,1.14879c0.0448,0.6528 -0.1984,1.05919 -0.2448,1.20959c-0.0848,-0.152 -0.39519,-0.52799 -0.44319,-1.22399c-0.0336,-0.56959 0.16,-0.88959 0.28799,-1.08479c-0.12319,-0.89759 -0.36639,-1.69919 -0.53919,-2.32318c-0.264,-0.89439 -0.4128,-1.45439 -0.4112,-1.45439l0.4672,1.43999zm-2.63998,-2.11678c0.192,0.30879 1.03039,1.62718 1.82238,3.43677c0.1632,0.0912 0.488,0.2672 0.68,0.70719c0.2176,0.528 0.0048,0.8848 -0.0272,1.0528c-0.1536,-0.1424 -0.4672,-0.3104 -0.6608,-0.7744c-0.1584,-0.3632 -0.112,-0.68799 -0.0784,-0.88159c-0.89119,-2.10398 -1.79198,-3.60637 -1.77758,-3.61117l0.0416,0.0704zm0.2752,3.14397c0.35839,0.5072 0.77599,1.18559 1.30719,1.89119c0.23039,0.0512 0.59679,0.1488 0.95839,0.59519c0.4352,0.5504 0.4304,1.03999 0.46079,1.20799c-0.13439,-0.0912 -0.57599,-0.2592 -0.97119,-0.76159c-0.35999,-0.4416 -0.45759,-0.7856 -0.55519,-1.00799c-0.5184,-0.7056 -0.912,-1.38559 -1.24799,-1.89439c-0.4768,-0.74559 -0.816,-1.17119 -0.8128,-1.17439c-0.0032,0.0032 0.3584,0.4112 0.8608,1.14399zm-0.1072,5.43836c0.46559,0.71839 1.04319,1.61119 1.54879,2.64958c0.11359,0.1824 0.23359,0.37759 0.36159,0.60159c0.4016,0.6736 0.8512,1.54719 1.40159,2.49278c0.0496,-0.1648 0.1072,-0.3008 0.1568,-0.41439c-0.184,-0.5456 -0.3936,-1.0656 -0.61279,-1.55199c-0.4992,-0.8352 -0.8992,-1.61119 -1.24639,-2.21918c-0.5904,-1.032 -1.008,-1.62559 -1.0064,-1.62879c-0.0016,0.0032 0.4496,0.57439 1.07359,1.58559c0.12,0.19839 0.2496,0.41439 0.3824,0.64319c-0.1008,-0.1904 -0.1984,-0.376 -0.2912,-0.5504l-1.22559,-2.29438c-0.0016,0 0.5184,0.8592 1.31839,2.25758c0.3648,0.6384 0.7984,1.40479 1.20159,2.27199c0.0672,0.1056 0.1328,0.21119 0.2,0.31839c0.2384,0.0704 0.5936,0.184 0.94399,0.5376c-0.072,-0.1712 -0.1472,-0.3376 -0.21759,-0.4992c-0.1872,-0.152 -0.3936,-0.35199 -0.5872,-0.62559c-0.4144,-0.584 -0.52,-1.02239 -0.62879,-1.30719c-0.6064,-0.91839 -1.072,-1.78879 -1.46399,-2.44478c-0.5696,-0.95839 -0.96959,-1.50879 -0.96799,-1.51199c-0.0016,0.0016 0.42719,0.5328 1.02879,1.47039c0.42239,0.65599 0.91679,1.52799 1.54399,2.44798c0.0576,0.0144 0.11999,0.0336 0.18879,0.056c-0.46079,-0.97599 -0.72639,-1.55519 -0.72479,-1.55519l0.81759,1.58879c0.2656,0.1024 0.5888,0.2912 0.8912,0.71199c0.51519,0.7216 0.46239,1.35359 0.48319,1.57279c-0.0656,-0.0512 -0.192,-0.1232 -0.3504,-0.2304c0.1296,0.2752 0.2592,0.5632 0.3872,0.86559c0.136,0.24 0.2208,0.4672 0.272,0.6704c0.1472,0.384 0.2816,0.78559 0.4016,1.20159c-0.0656,0.0048 -0.1312,0.0096 -0.1984,0.0144c-0.0416,-0.1456 -0.0816,-0.2912 -0.1264,-0.432c0,0.0208 0,0.0432 0,0.0608c-0.1216,-0.0992 -0.4512,-0.2784 -0.80319,-0.63839c0.0592,0.1248 0.11679,0.264 0.17119,0.41279c0.1616,0.136 0.3248,0.3152 0.48,0.56c0.01119,0.0192 0.0192,0.0368 0.0304,0.056c-0.50241,0.0336 -1.01599,0.0528 -1.53439,0.056c-0.1248,-0.5152 -0.1072,-0.92159 -0.04,-1.24319l-0.46079,-0.83359c0.23198,0.89599 0.0352,1.52958 0.0176,1.76318c-0.192,-0.2064 -0.8224,-0.67679 -1.15199,-1.72318c-0.2736,-0.8592 -0.088,-1.41439 0.0384,-1.75999c-0.5424,-1.33119 -1.24479,-2.47198 -1.78239,-3.36157l-1.25439,-2.07039c-0.0016,0 0.5216,0.7744 1.33439,2.02879zm-2.56318,5.22396c-1.23359,-0.848 -2.03359,-1.29759 -2.03039,-1.29919c-0.0016,0.0016 0.8224,0.41119 2.08479,1.22079c0.80159,0.51519 1.78398,1.21599 2.91517,1.92798c-0.1248,-0.0128 -0.25279,-0.0224 -0.37599,-0.0368c-1.0048,-0.66879 -1.87839,-1.31999 -2.59358,-1.81278zm1.00479,1.56159c-0.0752,-0.0144 -0.1472,-0.032 -0.2208,-0.048c-1.03839,-0.7328 -1.70238,-1.1072 -1.69918,-1.112c-0.0032,0.0032 0.75839,0.3872 1.91998,1.16zm0.70399,-1.36799c-1.19199,-0.7152 -2.19518,-1.44799 -2.99997,-1.98079c-1.16959,-0.77279 -1.92639,-1.18559 -1.92479,-1.18719c-0.0032,0 0.7744,0.376 1.97119,1.11359c0.83839,0.5168 1.87678,1.23679 3.08797,1.94239c0.368,-0.0624 0.96959,-0.1472 1.77279,0.296c0.97919,0.54239 1.26559,1.27519 1.40799,1.50718c-0.2528,-0.056 -1.0016,-0.056 -1.88799,-0.55199c-0.79039,-0.44 -1.14559,-0.8752 -1.42719,-1.13919zm-6.17915,-4.80957c-0.0032,0.0032 0.7264,0.3424 1.85439,1.0144c0.78559,0.47199 1.76638,1.12639 2.90717,1.76158c0.3424,-0.064 0.8992,-0.152 1.65279,0.2432c0.92319,0.4832 1.20639,1.15359 1.34399,1.36479c-0.2336,-0.0448 -0.93119,-0.0304 -1.76639,-0.4704c-0.74719,-0.39359 -1.08799,-0.79199 -1.35518,-1.03039c-1.1232,-0.64479 -2.07039,-1.31199 -2.82878,-1.79838c-1.09919,-0.7056 -1.80959,-1.0816 -1.80799,-1.0848zm5.12476,-2.09918c0.5632,0.7664 1.29279,1.75519 1.89279,2.94398c0.23199,0.2912 0.63359,0.68639 0.94239,1.47999c0.3472,0.89439 0.1872,1.55358 0.1856,1.78558c-0.1904,-0.1792 -0.8064,-0.57439 -1.17599,-1.52479c-0.3088,-0.77919 -0.1712,-1.30719 -0.0768,-1.63198c-0.584,-1.19999 -1.29599,-2.21598 -1.84159,-3.01118l-1.26879,-1.85118l1.34239,1.80958zm-1.99198,-1.39679c0.56159,0.6752 1.28959,1.54239 1.91678,2.59838c0.232,0.256 0.6224,0.5936 0.96159,1.30559c0.3776,0.8 0.2768,1.42079 0.2928,1.63199c-0.1856,-0.152 -0.77919,-0.4768 -1.18399,-1.33119c-0.3328,-0.69759 -0.2416,-1.19199 -0.176,-1.49759c-0.61119,-1.07039 -1.32479,-1.96318 -1.87518,-2.66398l-1.27039,-1.63038l1.33439,1.58718zm-2.07359,-1.28799c0.5504,0.5856 1.27679,1.32799 1.91839,2.25438c0.2272,0.2176 0.61279,0.4992 0.96479,1.1312c0.408,0.70559 0.3552,1.28319 0.3856,1.47678c-0.1824,-0.128 -0.7392,-0.38719 -1.17439,-1.13919c-0.3488,-0.62079 -0.3024,-1.07679 -0.2656,-1.36159c-0.6288,-0.93919 -1.34399,-1.70878 -1.88319,-2.31678c-0.78879,-0.86399 -1.26399,-1.41119 -1.26079,-1.41119l1.31519,1.36639zm-4.15196,-1.00959c0.38719,0.248 2.06078,1.28799 3.94717,2.90398c0.23679,0.0176 0.70079,0.0496 1.15999,0.44319c0.53599,0.4768 0.48959,0.9856 0.54399,1.19039c-0.2544,-0.08319 -0.70239,-0.10719 -1.17279,-0.52799c-0.3776,-0.3232 -0.50399,-0.7104 -0.57279,-0.94399c-2.16159,-1.89599 -4.00477,-3.11038 -3.99197,-3.12478l0.0864,0.0592zm2.03038,3.36957c0.6832,0.3808 1.53119,0.928 2.51838,1.43999c0.2896,-0.0592 0.75999,-0.1376 1.41439,0.1728c0.79359,0.3952 1.05759,0.94239 1.18239,1.11519c-0.2016,-0.032 -0.79679,0.0048 -1.51839,-0.35359c-0.64799,-0.3104 -0.94879,-0.6432 -1.18239,-0.8416c-0.97279,-0.52319 -1.79358,-1.07839 -2.45118,-1.47199c-0.94879,-0.59199 -1.56639,-0.89439 -1.56639,-0.89759c0,0.0032 0.632,0.2752 1.60319,0.83679zm-0.2448,0.7904c-0.0016,0.0032 0.6784,0.312 1.72959,0.92319c0.73599,0.4272 1.65119,1.02239 2.71838,1.59359c0.31679,-0.0608 0.82879,-0.1504 1.53278,0.2016c0.8608,0.43359 1.136,1.04319 1.26719,1.23519c-0.21759,-0.0384 -0.86399,-0.0112 -1.64478,-0.4064c-0.6944,-0.3488 -1.01759,-0.7136 -1.26879,-0.93119c-1.04959,-0.5792 -1.93599,-1.1872 -2.64318,-1.62879c-1.03039,-0.6416 -1.69279,-0.98239 -1.69119,-0.98719zm22.12783,6.43195c-0.0688,1.77118 -0.672,3.69277 -1.59839,5.46394c0,0 -2.21118,4.47838 -9.15353,4.47838s-9.19352,-4.43837 -9.19352,-4.43837c-0.928,-1.78078 -1.49119,-3.68797 -1.56159,-5.50235l0.0048,0c-0.0032,-0.0464 -0.0048,-0.0928 -0.0048,-0.1408c0,-0.8512 0.52639,-1.64799 1.43359,-2.33598l0.96639,0.61919c-0.5984,0.4016 -0.94399,0.84959 -0.94399,1.32639c0,1.67679 4.16316,3.03678 9.29912,3.03678c5.13436,0 9.29753,-1.35999 9.29753,-3.03678c0,-1.15999 -1.99679,-2.16798 -4.92796,-2.67998l0.0128,-1.21919c3.75197,0.7344 6.37115,2.37758 6.37115,4.28957c0,0.048 -0.0016,0.0944 -0.0048,0.1408l0.0032,0l0,-0.0016z" fill="#000000" id="svg_1" stroke="null"/>
  <g id="svg_2"/>
  <g id="svg_3"/>
  <g id="svg_4"/>
  <g id="svg_5"/>
  <g id="svg_6"/>
  <g id="svg_7"/>
  <g id="svg_8"/>
  <g id="svg_9"/>
  <g id="svg_10"/>
  <g id="svg_11"/>
  <g id="svg_12"/>
  <g id="svg_13"/>
  <g id="svg_14"/>
  <g id="svg_15"/>
  <g id="svg_16"/>
 </g>
</svg>